<svg width="120" height="67" viewBox="0 0 120 67" fill="none" xmlns="http://www.w3.org/2000/svg">
<path d="M1.455 15H3.6666V9.1024H8.1286V7.2982H3.6666V3.3212H9.3896V1.517H1.455V15ZM21.6242 9.6456C21.6242 6.2894 19.2186 4.136 16.1728 4.136C13.127 4.136 10.7214 6.2894 10.7214 9.6456C10.7214 13.0018 13.03 15.1746 16.0758 15.1746C19.141 15.1746 21.6242 13.0018 21.6242 9.6456ZM12.9718 9.6456C12.9718 7.2206 14.4656 6.0566 16.134 6.0566C17.783 6.0566 19.3544 7.2206 19.3544 9.6456C19.3544 12.0706 17.7248 13.254 16.0758 13.254C14.4074 13.254 12.9718 12.0706 12.9718 9.6456ZM23.8105 15H26.0221V0.644H23.8105V15ZM28.9257 15H31.1373V0.644H28.9257V15ZM44.2259 9.6456C44.2259 6.2894 41.8203 4.136 38.7745 4.136C35.7287 4.136 33.3231 6.2894 33.3231 9.6456C33.3231 13.0018 35.6317 15.1746 38.6775 15.1746C41.7427 15.1746 44.2259 13.0018 44.2259 9.6456ZM35.5735 9.6456C35.5735 7.2206 37.0673 6.0566 38.7357 6.0566C40.3847 6.0566 41.9561 7.2206 41.9561 9.6456C41.9561 12.0706 40.3265 13.254 38.6775 13.254C37.0091 13.254 35.5735 12.0706 35.5735 9.6456ZM48.488 15H50.816L52.9694 7.1042L55.1228 15H57.4508L60.7682 4.3106H58.5954L56.3838 12.866L54.211 4.3106H51.9024L49.6326 12.9048L47.4016 4.3106H45.1512L48.488 15ZM67.4411 10.0724C67.4411 13.5062 69.8467 15.1358 72.6791 15.1358C75.4921 15.1358 77.9753 13.5062 77.9753 10.0724V1.517H75.7637V10.1112C75.7637 12.2064 74.5803 13.1958 72.6985 13.1958C70.8361 13.1958 69.6527 12.2064 69.6527 10.1112V1.517H67.4411V10.0724ZM88.8282 12.0124C88.7118 8.1518 82.6784 9.3546 82.6784 7.2012C82.6784 6.4834 83.2992 5.9984 84.4826 5.9984C85.6854 5.9984 86.4032 6.6386 86.4808 7.5698H88.6924C88.576 5.4358 86.9852 4.136 84.5602 4.136C82.0382 4.136 80.4474 5.5134 80.4474 7.2206C80.4474 11.1394 86.6554 9.9366 86.6554 12.0318C86.6554 12.769 85.9764 13.3122 84.696 13.3122C83.4738 13.3122 82.6396 12.5944 82.562 11.7214H80.2728C80.3698 13.6614 82.174 15.1746 84.7348 15.1746C87.2568 15.1746 88.8282 13.8166 88.8282 12.0124ZM106.442 9.6456C106.442 6.2894 104.037 4.136 100.991 4.136C97.9451 4.136 95.5395 6.2894 95.5395 9.6456C95.5395 13.0018 97.8481 15.1746 100.894 15.1746C103.959 15.1746 106.442 13.0018 106.442 9.6456ZM97.7899 9.6456C97.7899 7.2206 99.2837 6.0566 100.952 6.0566C102.601 6.0566 104.173 7.2206 104.173 9.6456C104.173 12.0706 102.543 13.254 100.894 13.254C99.2255 13.254 97.7899 12.0706 97.7899 9.6456ZM116.214 15H118.406V8.695C118.406 5.7074 116.524 4.136 114.022 4.136C112.741 4.136 111.558 4.6598 110.84 5.5328V4.3106H108.629V15H110.84V9.0248C110.84 7.0654 111.907 6.0566 113.537 6.0566C115.147 6.0566 116.214 7.0654 116.214 9.0248V15Z" fill="#0B090A"/>
<path d="M53.0103 57.3743L53.6215 53.393H49.8011V50.8094C49.8011 49.7204 50.3346 48.6582 52.0457 48.6582H53.7824V45.2688C53.7824 45.2688 52.2066 45 50.6996 45C47.5536 45 45.4973 46.9071 45.4973 50.3591V53.3937H42V57.375H45.4973V67H49.8011V57.375L53.0103 57.3743Z" fill="#3A0CA3"/>
<path d="M85 45C82.0097 45 81.637 45.0144 80.4667 45.0639C79.2917 45.1217 78.4968 45.3039 77.7955 45.5762C77.0721 45.8595 76.4561 46.2356 75.8475 46.8475C75.2349 47.4561 74.8554 48.0721 74.5762 48.7955C74.3039 49.4968 74.1217 50.2917 74.0639 51.4667C74.011 52.6377 74 53.0097 74 56C74 58.9903 74.0144 59.363 74.0639 60.5333C74.1217 61.7049 74.3039 62.5032 74.5762 63.2045C74.8595 63.9279 75.2356 64.5439 75.8475 65.1525C76.4561 65.7651 77.0721 66.1446 77.7955 66.4238C78.4968 66.6926 79.2951 66.8783 80.4667 66.9361C81.6377 66.989 82.0097 67 85 67C87.9903 67 88.363 66.9856 89.5333 66.9361C90.7049 66.8783 91.5032 66.692 92.2045 66.4238C92.9279 66.1405 93.5439 65.7644 94.1525 65.1525C94.7651 64.5439 95.1446 63.9313 95.4238 63.2045C95.6926 62.5032 95.8783 61.7049 95.9361 60.5333C95.989 59.3623 96 58.9903 96 56C96 53.0097 95.9856 52.637 95.9361 51.4667C95.8783 50.2951 95.692 49.4927 95.4238 48.7955C95.1405 48.0721 94.7644 47.4561 94.1525 46.8475C93.5439 46.2349 92.9313 45.8554 92.2045 45.5762C91.5032 45.3039 90.7049 45.1217 89.5333 45.0639C88.3623 45.011 87.9903 45 85 45ZM85 46.9802C87.9367 46.9802 88.2873 46.9947 89.448 47.0442C90.5186 47.0944 91.1016 47.2732 91.4887 47.4244C92.0051 47.6245 92.3661 47.861 92.7567 48.2475C93.1396 48.6305 93.3762 48.9956 93.5763 49.5119C93.7275 49.899 93.9063 50.4821 93.9565 51.5527C94.006 52.7133 94.0204 53.0647 94.0204 56.0007C94.0204 58.9367 94.006 59.288 93.9524 60.4487C93.8946 61.5193 93.7158 62.1023 93.5653 62.4894C93.3569 63.0058 93.1245 63.3668 92.7408 63.7573C92.3537 64.1403 91.9852 64.3769 91.4729 64.5769C91.0906 64.7282 90.4993 64.907 89.4246 64.9572C88.2578 65.0067 87.914 65.0211 84.9697 65.0211C82.0255 65.0211 81.6824 65.0067 80.5142 64.9531C79.4436 64.8953 78.853 64.7165 78.4659 64.5659C77.9433 64.3576 77.5851 64.1252 77.2014 63.7415C76.8143 63.3544 76.5681 62.9859 76.3784 62.4736C76.2243 62.0913 76.0483 61.5 75.9912 60.4253C75.9521 59.2722 75.9335 58.9147 75.9335 55.9842C75.9335 53.0551 75.9521 52.6968 75.9912 51.5293C76.0483 50.4546 76.2243 49.8647 76.3784 49.481C76.5681 48.9577 76.815 48.6002 77.2014 48.2131C77.5844 47.8301 77.9433 47.5826 78.4659 47.3887C78.853 47.2381 79.4292 47.0593 80.5039 47.0057C81.6707 46.9637 82.0145 46.9486 84.9546 46.9486L85 46.9802ZM85 50.3542C81.8777 50.3542 79.3529 52.8825 79.3529 56.0014C79.3529 59.1237 81.8811 61.6485 85 61.6485C88.1223 61.6485 90.6471 59.1203 90.6471 56.0014C90.6471 52.879 88.1189 50.3542 85 50.3542ZM85 59.6683C82.973 59.6683 81.3331 58.0284 81.3331 56.0014C81.3331 53.9744 82.973 52.3345 85 52.3345C87.027 52.3345 88.6669 53.9744 88.6669 56.0014C88.6669 58.0284 87.027 59.6683 85 59.6683ZM92.1949 50.1287C92.1949 50.8596 91.6001 51.4496 90.8727 51.4496C90.1418 51.4496 89.5518 50.8589 89.5518 50.1287C89.5518 49.4019 90.1459 48.8106 90.8727 48.8106C91.5994 48.8106 92.1949 49.4019 92.1949 50.1287Z" fill="#3A0CA3"/>
<path d="M4.92503 67.0008H0.363799V52.3121H4.92503V67.0008ZM2.64167 50.3085C1.18333 50.3085 0 49.1 0 47.6417C0 46.1833 1.18254 45 2.64167 45C4.10079 45 5.28333 46.1825 5.28333 47.6417C5.28333 49.1 4.1 50.3085 2.64167 50.3085ZM21.9961 67.0008H17.4451V59.8505C17.4451 58.1463 17.4105 55.9611 15.0737 55.9611C12.7023 55.9611 12.3385 57.8123 12.3385 59.728V67.0008H7.78199V52.3121H12.1562V54.3158H12.2199C12.8288 53.1615 14.3162 51.9436 16.5352 51.9436C21.1514 51.9436 22 54.9836 22 58.932V67.0008H21.9961Z" fill="#3A0CA3"/>
</svg>
