<svg width="141" height="43" viewBox="0 0 141 43" fill="none" xmlns="http://www.w3.org/2000/svg">
<rect width="141" height="42.5057" rx="20" fill="#FFE1E1"/>
<path d="M36.4076 21.2528C36.6672 20.8265 36.9355 20.3857 37.2006 19.9312C38.0877 18.4104 38.2505 16.8781 37.6846 15.3768C36.5427 12.3475 32.7257 10.5018 31.8421 10.2073L31.2207 10L30.2509 11.94L30.7189 12.3223C30.7242 12.3265 31.244 12.7807 31.2786 13.4693C31.3082 14.0571 30.986 14.6923 30.3211 15.3574C29.8594 15.819 29.3526 16.2655 28.8161 16.7381C26.5586 18.7261 24 20.98 24 25.2439C24 25.3024 24.0006 25.3607 24.0017 25.4185C24.018 26.3595 24.2201 27.2879 24.5963 28.1505C24.9725 29.0131 25.5154 29.7928 26.1939 30.445C27.5562 31.7701 29.3829 32.5097 31.2833 32.5056H35.6306L35.0939 31.4166C32.9136 26.9914 34.4555 24.459 36.4076 21.2528Z" fill="#FF1111"/>
<path d="M43.8229 25.1955C43.8103 25.1456 43.7972 25.0955 43.7835 25.0451C43.2385 23.047 40.2218 20.4778 39.8797 20.1915L39.1925 19.6165L38.742 20.3909C37.7152 22.1563 36.834 23.7664 36.4499 25.5931C36.0119 27.6763 36.3067 29.7935 37.3515 32.0658L37.5535 32.5056H38.067C38.9713 32.5082 39.8642 32.3032 40.6769 31.9063C41.4895 31.5094 42.2001 30.9312 42.7541 30.2163C43.3046 29.5171 43.6873 28.7007 43.8726 27.8302C44.0579 26.9598 44.0409 26.0583 43.8229 25.1955Z" fill="#FF1111"/>
<path d="M57.024 20.7529V17.1209H59.04C60.464 17.1209 61.104 17.7929 61.104 18.9449C61.104 20.0649 60.464 20.7529 59.04 20.7529H57.024ZM62.976 18.9449C62.976 17.1369 61.68 15.6329 59.04 15.6329H55.2V26.7529H57.024V22.2409H59.04C61.936 22.2409 62.976 20.5289 62.976 18.9449ZM73.1156 22.3369C73.1156 19.5689 71.1316 17.7929 68.6196 17.7929C66.1076 17.7929 64.1236 19.5689 64.1236 22.3369C64.1236 25.1049 66.0276 26.8969 68.5396 26.8969C71.0676 26.8969 73.1156 25.1049 73.1156 22.3369ZM65.9796 22.3369C65.9796 20.3369 67.2116 19.3769 68.5876 19.3769C69.9476 19.3769 71.2436 20.3369 71.2436 22.3369C71.2436 24.3369 69.8996 25.3129 68.5396 25.3129C67.1636 25.3129 65.9796 24.3369 65.9796 22.3369ZM76.7428 19.2329V17.9369H74.9188V30.9449H76.7428V25.4729C77.3188 26.1609 78.3588 26.8969 79.8148 26.8969C82.1348 26.8969 83.9588 25.0249 83.9588 22.3049C83.9588 19.5849 82.1348 17.7929 79.8148 17.7929C78.3748 17.7929 77.3028 18.4969 76.7428 19.2329ZM82.1028 22.3049C82.1028 24.2089 80.7908 25.3129 79.4148 25.3129C78.0548 25.3129 76.7428 24.2409 76.7428 22.3369C76.7428 20.4489 78.0548 19.3769 79.4148 19.3769C80.7908 19.3769 82.1028 20.4009 82.1028 22.3049ZM93.7465 17.9369H91.9225V22.8489C91.9225 24.4649 91.0425 25.2969 89.6985 25.2969C88.3705 25.2969 87.4905 24.4649 87.4905 22.8489V17.9369H85.6825V23.1209C85.6825 25.5849 87.2505 26.8809 89.3145 26.8809C90.3545 26.8809 91.3465 26.4489 91.9225 25.6969V26.7529H93.7465V17.9369ZM96.1531 26.7529H97.9771V14.9129H96.1531V26.7529ZM99.7639 22.3049C99.7639 25.0249 101.604 26.8969 103.892 26.8969C105.364 26.8969 106.42 26.1929 106.98 25.4409V26.7529H108.82V17.9369H106.98V19.2169C106.436 18.4969 105.412 17.7929 103.924 17.7929C101.604 17.7929 99.7639 19.5849 99.7639 22.3049ZM106.98 22.3369C106.98 24.2409 105.684 25.3129 104.308 25.3129C102.948 25.3129 101.636 24.2089 101.636 22.3049C101.636 20.4009 102.948 19.3769 104.308 19.3769C105.684 19.3769 106.98 20.4489 106.98 22.3369ZM113.04 22.1129C113.04 20.2409 113.872 19.6809 115.216 19.6809H115.68V17.7929C114.432 17.7929 113.552 18.3369 113.04 19.2169V17.9369H111.216V26.7529H113.04V22.1129Z" fill="#FF1111"/>
</svg>
